<svg width="210" height="279" xmlns="http://www.w3.org/2000/svg" xmlns:xlink="http://www.w3.org/1999/xlink" xml:space="preserve" overflow="hidden"><defs><clipPath id="clip0"><rect x="1009" y="1120" width="210" height="279"/></clipPath></defs><g clip-path="url(#clip0)" transform="translate(-1009 -1120)"><path d="M1123.21 1371.87C1123.06 1371.85 1122.91 1371.84 1122.76 1371.84L1109.1 1371.84C1123.15 1361.63 1131.49 1345.34 1131.54 1327.98 1131.54 1304.46 1126.42 1294.11 1110.48 1285.42 1108.83 1284.47 1106.72 1285.04 1105.76 1286.69 1104.81 1288.34 1105.38 1290.44 1107.03 1291.39 1107.08 1291.42 1107.12 1291.45 1107.17 1291.47 1120.89 1298.95 1124.64 1306.8 1124.64 1328 1124.64 1351.5 1109.03 1365.05 1095.93 1372.29 1094.26 1373.21 1093.66 1375.31 1094.58 1376.97 1095.19 1378.07 1096.34 1378.75 1097.6 1378.75L1122.5 1378.75C1126.1 1379.38 1128.55 1382.75 1128.04 1386.36 1127.39 1389.77 1124.37 1392.22 1120.89 1392.13L1073.92 1392.13C1072.43 1392.13 1065.62 1389.48 1059.46 1376.53 1059.46 1376.49 1059.41 1376.47 1059.39 1376.44 1059.27 1376.24 1059.13 1376.06 1058.98 1375.89 1058.85 1375.7 1058.7 1375.53 1058.53 1375.37 1058.5 1375.35 1058.49 1375.31 1058.46 1375.28 1057.63 1374.64 1056.69 1373.92 1055.64 1373.13 1042.74 1363.33 1015.9 1342.97 1015.9 1312.78 1015.9 1295.05 1023.23 1281.62 1030.33 1268.63 1031.14 1267.16 1031.94 1265.69 1032.72 1264.24 1047.77 1236.17 1045.87 1208.45 1027.62 1190.06 1026.3 1188.69 1024.12 1188.64 1022.75 1189.96 1021.37 1191.28 1021.32 1193.46 1022.64 1194.83 1022.67 1194.86 1022.7 1194.89 1022.72 1194.91 1038.96 1211.27 1040.39 1235.35 1026.64 1260.98 1025.86 1262.42 1025.07 1263.87 1024.28 1265.33 1017.12 1278.44 1009 1293.29 1009 1312.78 1009 1346.39 1038.76 1368.96 1051.46 1378.59 1052.27 1379.21 1052.97 1379.74 1053.65 1380.26 1060.02 1393.16 1068.36 1399 1073.92 1399L1120.89 1399C1127.84 1399.12 1133.81 1394.1 1134.88 1387.24 1135.88 1379.78 1130.67 1372.91 1123.21 1371.87Z" fill="#FFFFFF" fill-rule="evenodd"/><path d="M1176.23 1295.28C1176.23 1295.37 1174.98 1304 1164.72 1321.02 1164.15 1321.96 1162.99 1323.95 1162.99 1323.95 1162.63 1324.49 1162.43 1325.11 1162.41 1325.75L1162.41 1374.89C1162.41 1376.79 1163.96 1378.33 1165.86 1378.33L1168.92 1378.33C1172.39 1378.25 1175.42 1380.66 1176.12 1384.06 1176.76 1387.81 1174.24 1391.37 1170.48 1392.01 1170.1 1392.08 1169.71 1392.11 1169.33 1392.11L1155.28 1392.11C1151.47 1392.11 1148.38 1389.03 1148.38 1385.22L1148.38 1341.8C1148.38 1339.9 1146.84 1338.36 1144.93 1338.36 1143.03 1338.36 1141.48 1339.9 1141.48 1341.8L1141.48 1385.22C1141.48 1392.83 1147.66 1399 1155.28 1399L1168.7 1399C1175.95 1399.12 1182.13 1393.78 1183.04 1386.6 1183.8 1379.02 1178.25 1372.26 1170.66 1371.51 1170.22 1371.47 1169.77 1371.45 1169.33 1371.45L1169.33 1326.72C1181.17 1307.66 1182.91 1297.48 1183.08 1296.21 1184.74 1288.42 1185.45 1280.46 1185.19 1272.5L1185.19 1270.68C1185.46 1260.49 1184.01 1250.33 1180.91 1240.62 1179.29 1236.09 1178.45 1231.33 1178.43 1226.53 1178.65 1220.93 1183.34 1216.55 1188.95 1216.7 1205.59 1216.38 1218.93 1202.86 1219 1186.24 1219.07 1183.34 1218.14 1180.5 1216.36 1178.21L1188.56 1137.89 1188.56 1127.15C1188.63 1124.64 1187.36 1122.28 1185.22 1120.95 1182.58 1119.39 1179.22 1119.78 1177.01 1121.9L1130.35 1165.49C1124.26 1171.23 1120.81 1179.23 1120.81 1187.59L1120.81 1189.62C1120.81 1198.29 1111.26 1206.03 1099.16 1215.82 1075.47 1235.01 1043.03 1261.28 1043.03 1321.34 1042.84 1332.08 1043.65 1342.81 1045.46 1353.39 1045.77 1355.02 1047.19 1356.19 1048.84 1356.19 1049.06 1356.19 1049.28 1356.17 1049.5 1356.13 1051.37 1355.77 1052.59 1353.96 1052.23 1352.1 1050.51 1341.94 1049.74 1331.64 1049.92 1321.34 1049.92 1264.57 1080.9 1239.49 1103.51 1221.17 1117.03 1210.22 1127.71 1201.58 1127.71 1189.62L1127.71 1187.59C1127.7 1181.13 1130.36 1174.96 1135.07 1170.52L1181.63 1126.85C1181.64 1126.84 1181.67 1126.84 1181.68 1126.85 1181.69 1126.86 1181.69 1126.87 1181.69 1126.88L1181.69 1138.97C1181.69 1139.67 1181.9 1140.35 1182.3 1140.92L1210.85 1182.32C1213.04 1185.06 1212.35 1189.21 1209.19 1195.98 1205.33 1204.14 1197.25 1209.49 1188.22 1209.85 1179.09 1210.05 1171.74 1217.39 1171.55 1226.5 1171.56 1231.99 1172.5 1237.44 1174.3 1242.62 1177.22 1251.68 1178.57 1261.16 1178.3 1270.68L1178.3 1272.53C1178.54 1280.03 1177.88 1287.54 1176.32 1294.89Z" fill="#FFFFFF" fill-rule="evenodd"/></g></svg>