<svg width="44" height="43" xmlns="http://www.w3.org/2000/svg" xmlns:xlink="http://www.w3.org/1999/xlink" xml:space="preserve" overflow="hidden"><defs><clipPath id="clip0"><rect x="869" y="21" width="44" height="43"/></clipPath></defs><g clip-path="url(#clip0)" transform="translate(-869 -21)"><path d="M28.6667 13.4375C28.6667 17.3955 25.458 20.6042 21.5 20.6042 17.542 20.6042 14.3333 17.3955 14.3333 13.4375 14.3333 9.47946 17.542 6.27083 21.5 6.27083 25.458 6.27083 28.6667 9.47946 28.6667 13.4375Z" fill="#DAE3F3" transform="matrix(1.02326 0 0 1 869 21)"/><path d="M35.8333 36.7292 35.8333 29.5625C35.8333 28.4875 35.2958 27.4125 34.4 26.6958 32.4292 25.0833 29.9208 24.0083 27.4125 23.2917 25.6208 22.7542 23.65 22.3958 21.5 22.3958 19.5292 22.3958 17.5583 22.7542 15.5875 23.2917 13.0792 24.0083 10.5708 25.2625 8.6 26.6958 7.70417 27.4125 7.16667 28.4875 7.16667 29.5625L7.16667 36.7292 35.8333 36.7292Z" fill="#DAE3F3" transform="matrix(1.02326 0 0 1 869 21)"/></g></svg>